<svg width="698" height="48" viewBox="0 0 698 48" fill="none" xmlns="http://www.w3.org/2000/svg">
<g filter="url(#filter0_d_230_22230)">
<rect x="4.5" y="0.5" width="689" height="39" rx="1.5" fill="white" stroke="#D9D9D9"/>
<path d="M44.5 26L43.3672 22.7734H38.8828L37.75 26H36.2734L40.4297 14.7266H41.8203L45.9766 26H44.5ZM41.1016 16.4375L39.2969 21.5781H42.9531L41.1484 16.4375H41.1016ZM52.5938 24.8828V18.9922H49.5469L49.2969 22.4141C49.2188 23.5286 48.9974 24.3307 48.6328 24.8203V24.8828H52.5938ZM47.6641 28.1484H46.3984V24.8828H47.0781C47.625 24.5234 47.9453 23.6901 48.0391 22.3828L48.3516 17.875H53.9453V24.8828H55.2344V28.1484H53.9688V26H47.6641V28.1484ZM60.4062 17.7344C61.4479 17.7344 62.2865 18.1172 62.9219 18.8828C63.5625 19.6484 63.8828 20.6667 63.8828 21.9375C63.8828 23.2031 63.5651 24.2214 62.9297 24.9922C62.2943 25.7578 61.4635 26.1406 60.4375 26.1406C59.8646 26.1406 59.3516 26.0104 58.8984 25.75C58.4453 25.4896 58.0964 25.1328 57.8516 24.6797H57.8203V28.7109H56.4609V17.875H57.75V19.25H57.7812C58.0365 18.7812 58.3932 18.4115 58.8516 18.1406C59.3099 17.8698 59.8281 17.7344 60.4062 17.7344ZM60.1406 24.9453C60.8646 24.9453 61.4375 24.6745 61.8594 24.1328C62.2812 23.5911 62.4922 22.8594 62.4922 21.9375C62.4922 21.0156 62.2812 20.2839 61.8594 19.7422C61.4375 19.2005 60.8646 18.9297 60.1406 18.9297C59.4427 18.9297 58.8802 19.2057 58.4531 19.7578C58.026 20.3099 57.8125 21.0365 57.8125 21.9375C57.8125 22.8438 58.026 23.5729 58.4531 24.125C58.8802 24.6719 59.4427 24.9453 60.1406 24.9453ZM68.6562 18.9141C68.026 18.9141 67.5026 19.1328 67.0859 19.5703C66.6745 20.0026 66.4479 20.5599 66.4062 21.2422H70.8203C70.8047 20.5547 70.599 19.9948 70.2031 19.5625C69.8073 19.1302 69.2917 18.9141 68.6562 18.9141ZM70.7891 23.6719H72.125C72.0052 24.3906 71.6302 24.9818 71 25.4453C70.375 25.9089 69.6224 26.1406 68.7422 26.1406C67.5807 26.1406 66.6667 25.7656 66 25.0156C65.3333 24.2656 65 23.25 65 21.9688C65 20.6979 65.3333 19.6745 66 18.8984C66.6719 18.1224 67.5651 17.7344 68.6797 17.7344C69.7734 17.7344 70.638 18.1016 71.2734 18.8359C71.9089 19.5703 72.2266 20.5547 72.2266 21.7891V22.3047H66.3984V22.3828C66.3984 23.1641 66.612 23.7891 67.0391 24.2578C67.4661 24.7266 68.0443 24.9609 68.7734 24.9609C69.2839 24.9609 69.7188 24.8438 70.0781 24.6094C70.4375 24.375 70.6745 24.0625 70.7891 23.6719ZM80.4609 20.375H79.1172C78.9922 19.9531 78.7552 19.6068 78.4062 19.3359C78.0573 19.0651 77.612 18.9297 77.0703 18.9297C76.362 18.9297 75.7943 19.2057 75.3672 19.7578C74.9401 20.3047 74.7266 21.0312 74.7266 21.9375C74.7266 22.8594 74.9401 23.5911 75.3672 24.1328C75.7995 24.6745 76.3724 24.9453 77.0859 24.9453C77.6172 24.9453 78.0573 24.8203 78.4062 24.5703C78.7604 24.3203 79.0026 23.9688 79.1328 23.5156H80.4766C80.3411 24.2969 79.9661 24.9297 79.3516 25.4141C78.737 25.8984 77.9792 26.1406 77.0781 26.1406C75.9427 26.1406 75.0365 25.763 74.3594 25.0078C73.6823 24.2474 73.3438 23.224 73.3438 21.9375C73.3438 20.6719 73.6823 19.6562 74.3594 18.8906C75.0365 18.1198 75.9375 17.7344 77.0625 17.7344C77.9948 17.7344 78.7604 17.9896 79.3594 18.5C79.9635 19.0104 80.3307 19.6354 80.4609 20.375ZM90.5625 24.8828V18.9922H87.5156L87.2656 22.4141C87.1875 23.5286 86.9661 24.3307 86.6016 24.8203V24.8828H90.5625ZM85.6328 28.1484H84.3672V24.8828H85.0469C85.5938 24.5234 85.9141 23.6901 86.0078 22.3828L86.3203 17.875H91.9141V24.8828H93.2031V28.1484H91.9375V26H85.6328V28.1484ZM97.7969 26.1406C96.6615 26.1406 95.75 25.763 95.0625 25.0078C94.375 24.2474 94.0312 23.224 94.0312 21.9375C94.0312 20.651 94.375 19.6302 95.0625 18.875C95.75 18.1146 96.6615 17.7344 97.7969 17.7344C98.9271 17.7344 99.8359 18.1146 100.523 18.875C101.211 19.6302 101.555 20.651 101.555 21.9375C101.555 23.2188 101.211 24.2396 100.523 25C99.8359 25.7604 98.9271 26.1406 97.7969 26.1406ZM96.0547 24.1484C96.487 24.6797 97.0677 24.9453 97.7969 24.9453C98.526 24.9453 99.1042 24.6823 99.5312 24.1562C99.9583 23.625 100.172 22.8854 100.172 21.9375C100.172 20.9896 99.9583 20.2526 99.5312 19.7266C99.1042 19.1953 98.526 18.9297 97.7969 18.9297C97.0677 18.9297 96.487 19.1953 96.0547 19.7266C95.6276 20.2578 95.4141 20.9948 95.4141 21.9375C95.4141 22.8802 95.6276 23.6172 96.0547 24.1484ZM109.789 20.375H108.445C108.32 19.9531 108.083 19.6068 107.734 19.3359C107.385 19.0651 106.94 18.9297 106.398 18.9297C105.69 18.9297 105.122 19.2057 104.695 19.7578C104.268 20.3047 104.055 21.0312 104.055 21.9375C104.055 22.8594 104.268 23.5911 104.695 24.1328C105.128 24.6745 105.701 24.9453 106.414 24.9453C106.945 24.9453 107.385 24.8203 107.734 24.5703C108.089 24.3203 108.331 23.9688 108.461 23.5156H109.805C109.669 24.2969 109.294 24.9297 108.68 25.4141C108.065 25.8984 107.307 26.1406 106.406 26.1406C105.271 26.1406 104.365 25.763 103.688 25.0078C103.01 24.2474 102.672 23.224 102.672 21.9375C102.672 20.6719 103.01 19.6562 103.688 18.8906C104.365 18.1198 105.266 17.7344 106.391 17.7344C107.323 17.7344 108.089 17.9896 108.688 18.5C109.292 19.0104 109.659 19.6354 109.789 20.375ZM117.008 17.875V18.9922H114.383V26H113.039V18.9922H110.414V17.875H117.008ZM120.641 24.9844C121.281 24.9844 121.818 24.7865 122.25 24.3906C122.688 23.9896 122.906 23.4974 122.906 22.9141V22.25L120.734 22.3828C120.188 22.4193 119.763 22.5521 119.461 22.7812C119.164 23.0104 119.016 23.3177 119.016 23.7031C119.016 24.0885 119.164 24.3984 119.461 24.6328C119.758 24.8672 120.151 24.9844 120.641 24.9844ZM120.336 26.1406C119.529 26.1406 118.875 25.9167 118.375 25.4688C117.88 25.0208 117.633 24.4323 117.633 23.7031C117.633 23.0052 117.888 22.4479 118.398 22.0312C118.914 21.6146 119.641 21.3802 120.578 21.3281L122.906 21.1953V20.5156C122.906 20.0208 122.75 19.6328 122.438 19.3516C122.125 19.0703 121.688 18.9297 121.125 18.9297C120.609 18.9297 120.19 19.0443 119.867 19.2734C119.544 19.4974 119.339 19.8125 119.25 20.2188H117.938C117.984 19.4948 118.297 18.901 118.875 18.4375C119.458 17.9688 120.219 17.7344 121.156 17.7344C122.109 17.7344 122.865 17.974 123.422 18.4531C123.984 18.9323 124.266 19.5755 124.266 20.3828V26H122.977V24.6016H122.945C122.701 25.0651 122.341 25.4375 121.867 25.7188C121.393 26 120.883 26.1406 120.336 26.1406ZM129.43 18.9766H127.484V21.25H129.227C130.237 21.25 130.742 20.8646 130.742 20.0938C130.742 19.7344 130.63 19.4583 130.406 19.2656C130.182 19.0729 129.857 18.9766 129.43 18.9766ZM129.336 22.3438H127.484V24.8984H129.578C130.068 24.8984 130.443 24.7917 130.703 24.5781C130.964 24.3594 131.094 24.0443 131.094 23.6328C131.094 22.7734 130.508 22.3438 129.336 22.3438ZM126.141 26V17.875H129.617C130.378 17.875 130.977 18.0599 131.414 18.4297C131.852 18.7995 132.07 19.3073 132.07 19.9531C132.07 20.3646 131.94 20.7396 131.68 21.0781C131.424 21.4167 131.109 21.625 130.734 21.7031V21.7656C131.245 21.8385 131.654 22.0469 131.961 22.3906C132.273 22.7344 132.43 23.1589 132.43 23.6641C132.43 24.3828 132.18 24.9531 131.68 25.375C131.185 25.7917 130.505 26 129.641 26H126.141ZM136.742 21.7188L140.648 26H138.898L135.391 22.0938H135.328V26H133.984V17.875H135.328V21.4688H135.391L138.859 17.875H140.539L136.742 21.7188ZM143.125 26H141.781V17.875H143.125V23.9219H143.188L147.25 17.875H148.594V26H147.25V19.9531H147.188L143.125 26Z" fill="#BFBFBF"/>
<path d="M30.6377 19.8772L23.8455 13.0886L23.3903 12.6333C23.2865 12.5302 23.1463 12.4724 23 12.4724C22.8538 12.4724 22.7135 12.5302 22.6098 12.6333L15.3623 19.8772C15.256 19.9831 15.172 20.1092 15.1153 20.2481C15.0585 20.387 15.0302 20.5358 15.0319 20.6858C15.0389 21.3046 15.5539 21.7985 16.1727 21.7985H16.9198V27.5237H29.0803V21.7985H29.8432C30.1438 21.7985 30.4268 21.6808 30.6395 21.4681C30.7442 21.3637 30.8272 21.2395 30.8836 21.1028C30.94 20.9662 30.9688 20.8196 30.9682 20.6718C30.9682 20.3729 30.8504 20.0899 30.6377 19.8772V19.8772ZM23.9844 26.2581H22.0157V22.6722H23.9844V26.2581ZM27.8147 20.5329V26.2581H25.1094V22.2503C25.1094 21.8618 24.7948 21.5472 24.4063 21.5472H21.5938C21.2053 21.5472 20.8907 21.8618 20.8907 22.2503V26.2581H18.1854V20.5329H16.4979L23.0018 14.0343L23.4078 14.4403L29.5039 20.5329H27.8147Z" fill="#8C8C8C"/>
</g>
<defs>
<filter id="filter0_d_230_22230" x="0" y="0" width="698" height="48" filterUnits="userSpaceOnUse" color-interpolation-filters="sRGB">
<feFlood flood-opacity="0" result="BackgroundImageFix"/>
<feColorMatrix in="SourceAlpha" type="matrix" values="0 0 0 0 0 0 0 0 0 0 0 0 0 0 0 0 0 0 127 0" result="hardAlpha"/>
<feOffset dy="4"/>
<feGaussianBlur stdDeviation="2"/>
<feComposite in2="hardAlpha" operator="out"/>
<feColorMatrix type="matrix" values="0 0 0 0 0 0 0 0 0 0 0 0 0 0 0 0 0 0 0.25 0"/>
<feBlend mode="normal" in2="BackgroundImageFix" result="effect1_dropShadow_230_22230"/>
<feBlend mode="normal" in="SourceGraphic" in2="effect1_dropShadow_230_22230" result="shape"/>
</filter>
</defs>
</svg>
