<svg width="15" height="14" viewBox="0 0 15 14" fill="none" xmlns="http://www.w3.org/2000/svg">
<path d="M14.4202 9.73019H5.11549L5.58268 8.77863L13.3452 8.76456C13.6077 8.76456 13.8327 8.57706 13.8796 8.31769L14.9546 2.3005C14.9827 2.14269 14.9405 1.98019 14.8374 1.85675C14.7864 1.796 14.7228 1.74707 14.6511 1.71334C14.5793 1.67961 14.501 1.6619 14.4217 1.66144L4.54674 1.62863L4.46237 1.23175C4.40924 0.978625 4.18112 0.79425 3.92174 0.79425H1.50768C1.36139 0.79425 1.2211 0.852361 1.11766 0.955799C1.01423 1.05924 0.956116 1.19953 0.956116 1.34581C0.956116 1.4921 1.01423 1.63239 1.11766 1.73583C1.2211 1.83926 1.36139 1.89738 1.50768 1.89738H3.47487L3.84362 3.6505L4.75143 8.04581L3.58268 9.95363C3.52198 10.0355 3.48543 10.1328 3.47714 10.2344C3.46886 10.336 3.48918 10.438 3.5358 10.5286C3.62955 10.7146 3.81862 10.8318 4.02799 10.8318H5.00924C4.80005 11.1096 4.68706 11.448 4.68737 11.7958C4.68737 12.6802 5.40612 13.3989 6.29049 13.3989C7.17487 13.3989 7.89362 12.6802 7.89362 11.7958C7.89362 11.4474 7.77799 11.1083 7.57174 10.8318H10.0889C9.87974 11.1096 9.76675 11.448 9.76705 11.7958C9.76705 12.6802 10.4858 13.3989 11.3702 13.3989C12.2546 13.3989 12.9733 12.6802 12.9733 11.7958C12.9733 11.4474 12.8577 11.1083 12.6514 10.8318H14.4217C14.7249 10.8318 14.9733 10.5849 14.9733 10.2802C14.9724 10.1341 14.9137 9.99422 14.8101 9.89118C14.7065 9.78814 14.5663 9.73027 14.4202 9.73019V9.73019ZM4.77643 2.71613L13.7733 2.74581L12.8921 7.68019L5.82487 7.69269L4.77643 2.71613ZM6.29049 12.2896C6.01862 12.2896 5.79674 12.0677 5.79674 11.7958C5.79674 11.5239 6.01862 11.3021 6.29049 11.3021C6.56237 11.3021 6.78424 11.5239 6.78424 11.7958C6.78424 11.9268 6.73222 12.0524 6.63962 12.1449C6.54703 12.2375 6.42144 12.2896 6.29049 12.2896V12.2896ZM11.3702 12.2896C11.0983 12.2896 10.8764 12.0677 10.8764 11.7958C10.8764 11.5239 11.0983 11.3021 11.3702 11.3021C11.6421 11.3021 11.8639 11.5239 11.8639 11.7958C11.8639 11.9268 11.8119 12.0524 11.7193 12.1449C11.6267 12.2375 11.5011 12.2896 11.3702 12.2896V12.2896Z" fill="white"/>
</svg>
